HIERARCHY
ROOT Hips
{
  OFFSET 0 0 0
  CHANNELS 6 Xposition Yposition Zposition Zrotation Yrotation Xrotation
  JOINT LeftThigh
  {
    OFFSET 8.409438 0 -5.917753
    CHANNELS 3 Zrotation Yrotation Xrotation
    JOINT LeftLeg
    {
      OFFSET 0 0 -42.358652
      CHANNELS 3 Zrotation Yrotation Xrotation
      JOINT LeftFoot
      {
        OFFSET 0 0 -39.357303
        CHANNELS 3 Zrotation Yrotation Xrotation
      }
    }
  }
  JOINT RightThigh
  {
    OFFSET -8.409438 0 -5.917753
    CHANNELS 3 Zrotation Yrotation Xrotation
    JOINT RightLeg
    {
      OFFSET 0 0 -42.358652
      CHANNELS 3 Zrotation Yrotation Xrotation
      JOINT RightFoot
      {
        OFFSET 0 0 -39.357303
        CHANNELS 3 Zrotation Yrotation Xrotation
      }
    }
  }
  JOINT SpineLow
  {
    OFFSET 0 0 4.719101
    CHANNELS 3 Zrotation Yrotation Xrotation
    JOINT SpineMid
    {
      OFFSET 0 0 12.899191
      CHANNELS 3 Zrotation Yrotation Xrotation
      JOINT Chest
      {
        OFFSET 0 0 12.899191
        CHANNELS 3 Zrotation Yrotation Xrotation
        JOINT LeftShoulder
        {
          OFFSET 7.550562 1.41573 9.438202
          CHANNELS 3 Zrotation Yrotation Xrotation
          JOINT LeftArm
          {
            OFFSET 9.155056 0 4.247191
            CHANNELS 3 Zrotation Yrotation Xrotation
            JOINT LeftForearm
            {
              OFFSET 0 0 25.771955
              CHANNELS 3 Zrotation Yrotation Xrotation
              JOINT LeftHand
              {
                OFFSET 0 0 25.197169
                CHANNELS 3 Zrotation Yrotation Xrotation
              }
            }
          }
        }
        JOINT RightShoulder
        {
          OFFSET -7.550562 1.41573 9.438202
          CHANNELS 3 Zrotation Yrotation Xrotation
          JOINT RightArm
          {
            OFFSET -9.155056 0 4.247191
            CHANNELS 3 Zrotation Yrotation Xrotation
            JOINT RightForearm
            {
              OFFSET 0 0 -25.771955
              CHANNELS 3 Zrotation Yrotation Xrotation
              JOINT RightHand
              {
                OFFSET 0 0 -25.197169
                CHANNELS 3 Zrotation Yrotation Xrotation
              }
            }
          }
        }
        JOINT Neck
        {
          OFFSET 0 0 15.101124
          CHANNELS 3 Zrotation Yrotation Xrotation
          JOINT Head
          {
            OFFSET 0 0 11.325843
            CHANNELS 3 Zrotation Yrotation Xrotation
            End Site
            {
              OFFSET 0 0 14.157303
            }
          }
        }
      }
    }
  }
}
MOTION
Frames: 5
Frame Time: 0.0
0.0  101.685394  0.0  7.41217  23.616552  -92.691084  14.565721  -18.213368  27.622512  -4.304774  7.474729  23.147563  0.217689  8.209315  0.191163  -28.43547  12.458502  -52.609705  7.223812  7.010247  58.87019  25.209733  4.853486  3.27758  -6.227785  1.334288  0.769381  -16.995943  3.816386  1.746492  -16.995943  3.816385  1.746492  11.810209  31.250567  20.823236  126.457069  48.933759  -177.808375  -58.877988  -22.658534  104.247785  86.250208  7.127282  -16.431391  35.442137  -4.947349  33.998746  83.318101  73.424409  15.04655  -34.77649  2.453037  -91.556462  77.721812  14.941191  62.026973  5.992999  -1.254765  -4.664004  4.485304  -0.986991  -3.485955  
0.0  101.685394  0.0  6.978967  22.965037  -93.252765  15.412778  -18.738377  27.804059  -4.528681  7.360976  23.081896  0.143573  8.148116  0.1988  -27.611198  12.335153  -52.012907  7.206468  7.044702  58.694877  25.091577  4.776713  3.195523  -6.123541  1.325975  0.857626  -16.70565  3.813642  1.994482  -16.70565  3.813642  1.994481  11.465217  31.112006  20.719833  126.659397  49.11478  -177.815069  -58.996139  -22.816736  104.441065  86.395359  7.491538  -16.438331  35.141828  -4.991438  33.918449  84.190583  73.059699  15.860953  -34.641206  2.444274  -91.982578  77.379415  14.593981  61.775313  5.939311  -1.284298  -4.643634  4.444843  -1.008534  -3.470486  
0.0  101.685394  0.0  6.867253  22.996239  -93.251998  15.658819  -18.842996  27.752496  -4.903805  7.290332  22.832566  0.20091  8.132098  0.271853  -27.464711  12.377754  -51.936396  6.99991  7.208242  58.474467  25.087447  4.673553  3.140114  -6.146165  1.317157  0.853925  -16.767865  3.789382  1.98529  -16.767866  3.789381  1.98529  11.522582  31.196971  20.819966  126.649201  49.419445  -178.001254  -59.034498  -23.016714  104.689533  86.680415  7.865927  -16.534919  35.079276  -4.957061  34.051532  84.740324  72.781416  16.395004  -34.620579  2.660412  -92.376037  77.053912  14.08869  61.548797  5.886795  -1.302484  -4.590865  4.405417  -1.021265  -3.430831  
0.0  101.685394  0.0  6.459308  22.630689  -93.715659  16.019136  -19.197664  27.864784  -5.207828  7.225511  22.658144  0.403115  8.102409  0.386859  -26.843504  12.395717  -51.394048  6.817711  7.208956  58.32641  24.847142  4.57176  2.992379  -6.088856  1.290221  0.923131  -16.60742  3.732066  2.183381  -16.607419  3.732066  2.183381  11.003243  31.155264  20.731376  127.04686  49.741189  -177.931157  -59.1604  -23.335802  104.933039  87.065305  8.28859  -16.79193  34.605653  -4.914531  33.955686  85.863853  72.414871  17.412447  -34.617048  2.968432  -92.850902  76.725179  13.400236  61.422274  5.816352  -1.300242  -4.588144  4.352606  -1.019025  -3.428953  
0.0  101.685394  0.0  6.290695  22.677599  -93.698109  15.973988  -19.116977  27.751597  -5.437221  7.120196  22.47163  0.632595  8.113513  0.497099  -26.544023  12.506297  -51.300481  6.400261  7.467766  58.157616  24.909614  4.376065  2.910694  -6.102393  1.272813  0.919212  -16.644934  3.684247  2.176275  -16.644934  3.684248  2.176275  10.883724  31.263933  20.807693  127.033418  50.247134  -178.226298  -59.163009  -23.637069  105.191328  87.472998  8.700835  -17.252793  34.41481  -4.884917  34.057242  86.519514  72.227269  18.12813  -34.824882  3.451481  -93.342602  76.410616  12.475746  61.415695  5.722813  -1.34373  -4.581577  4.282125  -1.050879  -3.423796  
